<?xml version="1.0" encoding="utf-8"?>
<!-- Generator: Adobe Illustrator 17.1.0, SVG Export Plug-In . SVG Version: 6.00 Build 0)  -->
<!DOCTYPE svg PUBLIC "-//W3C//DTD SVG 1.1//EN" "http://www.w3.org/Graphics/SVG/1.1/DTD/svg11.dtd">
<svg version="1.1" id="Layer_1" xmlns="http://www.w3.org/2000/svg" xmlns:xlink="http://www.w3.org/1999/xlink" x="0px" y="0px"
	 viewBox="0 0 500 180" enable-background="new 0 0 500 180" xml:space="preserve">
<path fill="#1E1347" d="M210.7,160.3H25.3c-7,0-12.7-5.7-12.7-12.7V32.8c0-7,5.7-12.7,12.7-12.7h185.4c7,0,12.7,5.7,12.7,12.7v114.8
	C223.4,154.6,217.7,160.3,210.7,160.3z"/>
<polygon fill="#352562" points="99.4,160.3 26.2,20.1 91,20.1 164.3,160.3 "/>
<polygon fill="#352562" points="180.2,160.3 107,20.1 135.7,20.1 208.9,160.3 "/>
<path fill="none" d="M210.7,160.3H99.4H25.3c-7,0-12.7-5.7-12.7-12.7V32.8c0-7,5.7-12.7,12.7-12.7h185.4c7,0,12.7,5.7,12.7,12.7
	v114.8C223.4,154.6,217.7,160.3,210.7,160.3z"/>
<path fill="#FBBD17" d="M71.8,142.8H36.1v-33.4h35.7c9.1,0,16.5,7.4,16.5,16.5v0.3C88.3,135.4,80.9,142.8,71.8,142.8z"/>
<path fill="#FBBD17" d="M52,142.8H16.3v-33.4H52c9.1,0,16.5,7.4,16.5,16.5v0.3C68.6,135.4,61.2,142.8,52,142.8z"/>
<circle fill="#FFFFFF" cx="70" cy="126.1" r="12.4"/>
<path fill="#FBBD17" d="M10.2,109.4h6.6v33.4h-6.6c-1.7,0-3-7.4-3-16.5v-0.3C7.2,116.8,8.5,109.4,10.2,109.4z"/>
<g>
	<path fill="#FFFFFF" stroke="#FFFFFF" stroke-width="8.5" stroke-miterlimit="10" d="M148.7,44.9V49h-29.1v35.1h27.7v4.1h-27.7
		v44.2l29.1,0.2v3.6l-31.2-0.2l-1.4-2.9V49.9H116c0-0.1,0-0.2,0-0.3v-0.2h-0.1c0-0.1,0-0.2,0-0.3c0-0.2,0-0.4,0-0.5
		c0-0.1,0-0.2,0-0.3c0-0.1,0.1-0.2,0.1-0.3v-0.2c0-0.1,0-0.2,0-0.3c0-0.1,0-0.2,0-0.3c0-0.1,0-0.2,0.1-0.3v-0.2
		c0.1-0.1,0.1-0.2,0.2-0.3c0.1-0.1,0.1-0.2,0.2-0.3c0.1,0,0.1,0,0.2-0.2c0.1-0.1,0.1-0.2,0.2-0.3c0.1-0.2,0.3-0.4,0.4-0.5
		c0.2-0.1,0.3-0.2,0.5-0.3v-0.2H148.7z"/>
	<path fill="#FFFFFF" stroke="#FFFFFF" stroke-width="8.5" stroke-miterlimit="10" d="M193.8,48.1h-3.2c-0.1,0-0.1,0-0.2,0.1
		c-0.1,0.1-0.1,0.1-0.2,0.1c-0.1,0-0.1,0-0.2,0c-0.1,0-0.1,0-0.2,0c-0.1,0-0.1,0-0.2,0s-0.2,0-0.3,0c-3,0.1-6,0.7-8.8,1.7
		c-2.9,1-5.7,2.4-8.5,4.1c-2.8,1.8-5.2,4-7.4,6.7c-2.1,2.6-4,5.7-5.4,9.2c-0.4,1.2-0.8,2.4-1.1,3.6c-0.4,1.2-0.7,2.5-1,3.8
		c-0.4,1.3-0.7,2.6-0.9,3.9c-0.2,1.3-0.4,2.5-0.5,3.7c-0.1,0.6-0.2,1.2-0.3,1.7c-0.1,0.6-0.1,1.1-0.1,1.6c-0.1,0.6-0.1,1.2-0.1,1.7
		c0,0.6,0,1.1,0,1.6c0,0.2,0,0.4,0,0.7c0,0.3,0,0.5,0,0.7c0,0.2,0,0.4,0,0.7c0,0.3,0,0.5,0.1,0.7c0.1,2.3,0.4,4.6,0.8,6.9
		c0.4,2.3,1,4.6,1.9,6.9c0.7,2.2,1.6,4.3,2.7,6.3c1.1,2,2.4,3.8,3.8,5.5c1.3,1.6,2.7,3.1,4.2,4.4c1.4,1.3,2.9,2.5,4.4,3.5
		c1.5,1,3.1,1.9,4.8,2.6c1.7,0.8,3.5,1.4,5.3,1.9c0.2,0.1,0.4,0.2,0.6,0.2c0.2,0.1,0.4,0.1,0.5,0.1c0.2,0,0.4,0,0.6,0s0.4,0,0.7,0
		c0.1,0,0.1,0,0.2,0.1c0.1,0.1,0.1,0.1,0.2,0.1c0.1,0,0.3,0,0.4,0c0.1,0,0.3,0,0.4,0c0.2,0,0.4,0,0.6,0c0.2,0,0.4,0,0.6,0
		c0.3,0,0.5,0,0.8,0c0.3,0,0.5,0,0.8,0c0.3,0,0.5,0,0.8-0.1c0.3,0,0.6-0.1,0.8-0.2c0.1,0,0.1,0,0.2,0c0.1,0,0.1,0,0.2,0
		c0.1,0,0.1,0,0.2,0c0.1,0,0.1,0,0.2,0c0.1,0,0.1,0,0.2,0c0.1,0,0.1,0,0.2-0.2c0.1,0,0.2,0,0.3,0s0.2,0,0.2,0c0.1,0,0.1,0,0.2,0
		c0.1,0,0.1,0,0.2-0.2c0.1,0,0.2,0,0.3,0c0.1,0,0.1,0,0.1,0c0,0,0.1,0,0.1,0h0.1l0.1-0.2c0.1,0,0.1,0,0.2,0c0.1,0,0.1,0,0.2,0V84.4
		h3.4v46.6c0,0.1,0,0.2,0,0.4s0,0.3,0,0.4c0,0.1,0,0.2,0,0.3l-0.1,0.2c0,0.2,0,0.4,0,0.6c0,0.2-0.1,0.4-0.2,0.6
		c-0.1,0.1-0.1,0.2-0.1,0.4c0,0.2-0.1,0.3-0.1,0.5c-0.4,0.4-0.9,0.7-1.4,1c-0.5,0.3-1,0.5-1.5,0.7c-0.6,0.1-1.1,0.2-1.7,0.3
		c-0.5,0.1-1.1,0.2-1.6,0.2c-0.1,0-0.1,0-0.2,0s-0.2,0-0.3,0.2c-0.1,0-0.1,0-0.2,0s-0.2,0-0.2,0c-0.2,0-0.4,0-0.5,0
		c-0.2,0-0.3,0-0.4,0c-0.1,0-0.1,0-0.2,0c-0.1,0-0.1,0-0.2,0c-0.1,0-0.1,0-0.2,0c-0.1,0-0.1,0-0.2,0c-0.1,0-0.1,0-0.2,0
		c-0.1,0-0.2,0-0.2,0c-0.4-0.1-0.9-0.2-1.3-0.2c-0.4,0-0.8,0-1.2,0c-0.4,0-0.9,0-1.2,0c-0.4,0-0.7,0-1-0.2c-4.5-1-8.6-2.9-12.3-5.6
		c-3.7-2.7-7-6.2-9.9-10.6c-2.9-4.4-5-9.2-6.5-14.2c-1.4-5-2.2-10.3-2.2-15.9c0-0.4,0-0.8,0-1.3c0-0.5,0-0.9,0-1.3
		c0-0.5,0-1,0.1-1.4c0.1-0.5,0.1-0.9,0.2-1.3c0-0.3,0-0.6,0-1c0-0.4,0.1-0.7,0.1-1.1c0-0.2,0-0.4,0-0.5c0-0.2,0.1-0.3,0.1-0.5
		c0.1-0.1,0.1-0.3,0.1-0.5c0-0.2,0-0.4,0-0.6c0.7-3.5,1.7-6.9,2.9-10.1c1.3-3.2,2.8-6.2,4.7-9c1.9-2.8,3.9-5.3,6.2-7.5
		c2.2-2.2,4.7-4.1,7.3-5.7c1.3-0.6,2.6-1.1,3.8-1.6c1.3-0.5,2.6-0.8,4-1.1c1.4-0.3,2.8-0.5,4.2-0.7c1.4-0.2,2.7-0.2,4.1-0.2l3.8-0.2
		V48.1z"/>
</g>
<rect x="111.5" y="40.7" fill="#FFFFFF" width="11.6" height="99.5"/>
<rect x="111.5" y="40.4" fill="#FFFFFF" width="41.3" height="11.6"/>
<rect x="111.5" y="128.6" fill="#FFFFFF" width="41.3" height="11.6"/>
<rect x="190.2" y="99.5" fill="#FFFFFF" width="11.6" height="41.3"/>
<rect x="180" y="80.1" fill="#FFFFFF" width="21.7" height="11.6"/>
<g>
	<path fill="#1E1347" d="M241.7,140.3V39.1h30.6c12.1,0,21.3,2.6,27.4,7.7c6.2,5.1,9.2,12.7,9.2,22.7c0,9.7-2.9,17-8.8,21.8
		c-5.9,4.8-14.7,7.2-26.6,7.2h-8v41.8H241.7z M265.6,81.4h4.6c5.6,0,9.5-0.9,11.8-2.7c2.2-1.8,3.4-4.9,3.4-9.3
		c0-4.3-1.2-7.5-3.6-9.5c-2.4-2-6.2-3.1-11.3-3.1h-4.7V81.4z"/>
	<path fill="#1E1347" d="M297.3,140.3l26.4-101.2h25.1L376,140.3h-23.9l-4.4-20.9H325l-4.5,20.9H297.3z M328.6,102.4h15.7l-7.9-35
		L328.6,102.4z"/>
	<path fill="#1E1347" d="M382,140.3V39.1h24.3v101.2H382z"/>
	<path fill="#1E1347" d="M416.1,140.3V39.1h27.4c8.2,0,14.7,0.8,19.8,2.4c5,1.6,9.4,4.2,13.1,7.9c5.2,4.9,9.1,10.7,11.7,17.4
		c2.5,6.7,3.8,14.3,3.8,22.9c0,8.6-1.3,16.3-3.9,23c-2.6,6.7-6.5,12.5-11.7,17.4c-3.7,3.6-8.1,6.2-13.1,7.8
		c-5,1.6-11.6,2.4-19.8,2.4H416.1z M440.1,57.8v63.7h8.2c6,0,10.6-2.8,13.9-8.4c3.3-5.6,5-13.4,5-23.5c0-10.1-1.7-18-5-23.5
		c-3.3-5.6-8-8.4-13.9-8.4H440.1z"/>
</g>
<polygon fill="#FFFFFF" points="324.7,120.5 329.5,98.5 343.3,98.5 348.9,124.9 "/>
<g>
</g>
<g>
</g>
<g>
</g>
<g>
</g>
<g>
</g>
<g>
</g>
</svg>
