<svg xmlns="http://www.w3.org/2000/svg" width="146" height="151" viewBox="0 0 146 151">
    <g fill="none" fill-rule="evenodd">
        <circle cx="73" cy="78" r="73" fill="#DCECFF" fill-rule="nonzero"/>
        <path fill="#E4E7ED" fill-rule="nonzero" d="M103.048 66.046H47.017V2.934a1 1 0 0 1 .928-.997 393.868 393.868 0 0 1 54.203-.155 1 1 0 0 1 .934.998l-.034 63.266z"/>
        <path fill="#C6CBD6" fill-rule="nonzero" d="M103.048 66.046H75.75c.875-25.933 26.423-26.948 27.298 0z"/>
        <path fill="#FFF" fill-rule="nonzero" d="M37.987 45.957H89.364c-6.755 0-12.389 7.63-13.474 17.604v65.061l-5.495-7.98-5.844 8.505-5.845-8.505-5.845 8.505-5.845-8.505-5.844 8.505-5.845-8.505-5.845 8.505-5.845-8.505-5.844 8.505v-62.89c0-11.2 9.134-20.3 20.298-20.3h-.104z"/>
        <path fill="#546B8E" fill-rule="nonzero" d="M82.98 78.05h53.05a1 1 0 0 1 1 1v63.796a1 1 0 0 1-1 1H82.98a1 1 0 0 1-1-1V79.05a1 1 0 0 1 1-1z"/>
        <g fill="#FFF" fill-rule="nonzero">
            <path d="M88.524 99.54h5.67c.77 0 1.4.629 1.4 1.399v5.67c0 .77-.63 1.4-1.4 1.4h-5.67c-.77 0-1.4-.63-1.4-1.4v-5.67c0-.77.63-1.4 1.4-1.4zM99.513 99.54h5.67c.77 0 1.4.629 1.4 1.399v5.67c0 .77-.63 1.4-1.4 1.4h-5.67c-.77 0-1.4-.63-1.4-1.4v-5.67c0-.77.63-1.4 1.4-1.4z"/>
        </g>
        <path fill="#83CF8F" fill-rule="nonzero" d="M110.502 99.54h5.67c.77 0 1.4.629 1.4 1.399v5.67c0 .77-.63 1.4-1.4 1.4h-5.67c-.77 0-1.4-.63-1.4-1.4v-5.67c0-.77.63-1.4 1.4-1.4z"/>
        <path fill="#FFE356" fill-rule="nonzero" d="M121.492 99.54h5.67c.77 0 1.399.629 1.399 1.399v5.67c0 .77-.63 1.4-1.4 1.4h-5.67c-.77 0-1.4-.63-1.4-1.4v-5.67c0-.77.63-1.4 1.4-1.4z"/>
        <g fill="#FFF" fill-rule="nonzero">
            <path d="M88.524 110.283h5.67c.77 0 1.4.63 1.4 1.4v5.67c0 .77-.63 1.4-1.4 1.4h-5.67c-.77 0-1.4-.63-1.4-1.4v-5.67c0-.77.63-1.4 1.4-1.4zM99.513 110.283h5.67c.77 0 1.4.63 1.4 1.4v5.67c0 .77-.63 1.4-1.4 1.4h-5.67c-.77 0-1.4-.63-1.4-1.4v-5.67c0-.77.63-1.4 1.4-1.4zM110.502 110.283h5.67c.77 0 1.4.63 1.4 1.4v5.67c0 .77-.63 1.4-1.4 1.4h-5.67c-.77 0-1.4-.63-1.4-1.4v-5.67c0-.77.63-1.4 1.4-1.4zM121.492 110.283h5.67c.77 0 1.399.63 1.399 1.4v5.67c0 .77-.63 1.4-1.4 1.4h-5.67c-.77 0-1.4-.63-1.4-1.4v-5.67c0-.77.63-1.4 1.4-1.4zM88.524 121.063h5.67c.77 0 1.4.63 1.4 1.4v5.669c0 .77-.63 1.4-1.4 1.4h-5.67c-.77 0-1.4-.63-1.4-1.4v-5.67c0-.77.63-1.4 1.4-1.4zM99.513 121.063h5.67c.77 0 1.4.63 1.4 1.4v5.669c0 .77-.63 1.4-1.4 1.4h-5.67c-.77 0-1.4-.63-1.4-1.4v-5.67c0-.77.63-1.4 1.4-1.4zM110.502 121.063h5.67c.77 0 1.4.63 1.4 1.4v5.669c0 .77-.63 1.4-1.4 1.4h-5.67c-.77 0-1.4-.63-1.4-1.4v-5.67c0-.77.63-1.4 1.4-1.4zM121.492 121.063h5.67c.77 0 1.399.63 1.399 1.4v5.669c0 .77-.63 1.4-1.4 1.4h-5.67c-.77 0-1.4-.63-1.4-1.4v-5.67c0-.77.63-1.4 1.4-1.4zM88.524 131.807h5.67c.77 0 1.4.63 1.4 1.4v5.67c0 .77-.63 1.4-1.4 1.4h-5.67c-.77 0-1.4-.63-1.4-1.4v-5.67c0-.77.63-1.4 1.4-1.4zM99.513 131.807h5.67c.77 0 1.4.63 1.4 1.4v5.67c0 .77-.63 1.4-1.4 1.4h-5.67c-.77 0-1.4-.63-1.4-1.4v-5.67c0-.77.63-1.4 1.4-1.4zM110.502 131.807h5.67c.77 0 1.4.63 1.4 1.4v5.67c0 .77-.63 1.4-1.4 1.4h-5.67c-.77 0-1.4-.63-1.4-1.4v-5.67c0-.77.63-1.4 1.4-1.4zM121.492 131.807h5.67c.77 0 1.399.63 1.399 1.4v5.67c0 .77-.63 1.4-1.4 1.4h-5.67c-.77 0-1.4-.63-1.4-1.4v-5.67c0-.77.63-1.4 1.4-1.4z"/>
        </g>
        <path fill="#ECF0F1" fill-rule="nonzero" d="M86.5 81h46a.5.5 0 0 1 .5.5v11a.5.5 0 0 1-.5.5h-46a.5.5 0 0 1-.5-.5v-11a.5.5 0 0 1 .5-.5z"/>
        <path fill="#404040" d="M94.188 82.69c.242 0 .438.079.589.236.15.158.225.362.225.611v6.171c0 .257-.075.464-.225.622a.776.776 0 0 1-.589.236.795.795 0 0 1-.638-.286l-3.685-4.719v4.147c0 .257-.071.464-.214.622-.144.157-.336.236-.578.236a.759.759 0 0 1-.583-.236c-.147-.158-.22-.365-.22-.622v-6.171c0-.25.075-.453.225-.61a.776.776 0 0 1 .589-.237c.271 0 .48.095.627.286l3.685 4.686v-4.125a.86.86 0 0 1 .22-.61.745.745 0 0 1 .572-.237zm5.918 7.909c-.77 0-1.44-.163-2.007-.49a3.308 3.308 0 0 1-1.315-1.385c-.308-.598-.462-1.3-.462-2.107 0-.807.154-1.509.462-2.107a3.274 3.274 0 0 1 1.314-1.38c.569-.323 1.238-.484 2.008-.484s1.44.161 2.008.484a3.274 3.274 0 0 1 1.314 1.38c.308.598.462 1.3.462 2.107 0 .807-.154 1.509-.462 2.106a3.308 3.308 0 0 1-1.315 1.387c-.568.326-1.237.489-2.007.489zm0-1.331c.645 0 1.153-.227 1.524-.682.37-.455.555-1.111.555-1.969 0-.858-.183-1.512-.55-1.963-.367-.452-.876-.677-1.529-.677-.653 0-1.16.225-1.523.677-.364.45-.545 1.105-.545 1.963 0 .858.183 1.514.55 1.969.367.455.873.682 1.518.682zm13.145-2.783c.447.132.794.361 1.04.688.245.326.368.727.368 1.204 0 .653-.24 1.17-.72 1.551s-1.143.572-1.986.572h-2.882c-.257 0-.455-.07-.594-.209-.14-.14-.209-.337-.209-.594v-6.149c0-.257.07-.455.209-.594.14-.14.337-.209.594-.209h2.772c.807 0 1.446.18 1.92.539.473.36.709.85.709 1.474 0 .403-.108.757-.325 1.062a1.843 1.843 0 0 1-.896.665zm-3.311-.583h1.617c.44 0 .764-.075.973-.226.21-.15.314-.379.314-.687 0-.323-.104-.56-.314-.71-.209-.15-.533-.225-.973-.225h-1.617v1.848zm1.815 3.289c.455 0 .785-.077.99-.231.205-.154.308-.403.308-.748s-.103-.598-.308-.759c-.205-.161-.535-.242-.99-.242h-1.815v1.98h1.815zm4.95 1.375c-.264 0-.473-.077-.627-.231-.154-.154-.231-.363-.231-.627v-6.171c0-.257.077-.462.231-.616.154-.154.363-.231.627-.231s.473.077.627.231c.154.154.231.36.231.616v6.171c0 .264-.077.473-.231.627-.154.154-.363.231-.627.231zm3.201-.066c-.257 0-.455-.07-.594-.209-.14-.14-.209-.337-.209-.594v-6.16c0-.257.077-.462.231-.616.154-.154.363-.231.627-.231s.473.077.627.231c.154.154.231.36.231.616v5.566h2.816c.535 0 .803.235.803.704 0 .462-.268.693-.803.693h-3.729zm6.193 0c-.257 0-.455-.07-.594-.209-.14-.14-.209-.337-.209-.594v-6.16c0-.257.077-.462.231-.616.154-.154.363-.231.627-.231s.473.077.627.231c.154.154.231.36.231.616v5.566h2.816c.535 0 .803.235.803.704 0 .462-.268.693-.803.693h-3.729z"/>
        <path fill="#83CF8F" fill-rule="nonzero" d="M33.613 59.817h25.653v2.38H33.613z"/>
        <g fill="#C6CBD6" fill-rule="nonzero">
            <path d="M41.067 66.046H69.8v2.38H41.067zM41.067 74.9H69.8v2.345H41.067zM41.067 83.72H69.8v2.38H41.067zM41.067 92.574H69.8v2.345H41.067z"/>
        </g>
        <path fill="#FF7069" fill-rule="nonzero" d="M41.067 101.394h14.384v2.38H41.067z"/>
        <path fill="#C6CBD6" fill-rule="nonzero" d="M20.139 110.913h2.485v2.485h-2.485v-2.485zm49.941 0h2.485v2.485H70.08v-2.485zm-5.564 0H67v2.485h-2.485v-2.485zm-5.565 0h2.485v2.485h-2.485v-2.485zm-5.565 0h2.485v2.485h-2.485v-2.485zm-5.564 0h2.485v2.485h-2.485v-2.485zm-5.565 0h2.485v2.485h-2.485v-2.485zm-5.565 0h2.485v2.485h-2.485v-2.485zm-5.564 0h2.485v2.485h-2.485v-2.485zm-5.565 0h2.485v2.485h-2.485v-2.485z"/>
        <path fill="#FFE356" fill-rule="nonzero" d="M23.953 73.01c0-1.47.315-2.66.91-3.57.595-.909 1.505-1.504 2.695-1.749v-1.61h2.8v1.61c1.225.245 2.135.84 2.765 1.715.595.91.91 2.1.91 3.604v.7h-3.255v-.91c0-.805-.14-1.33-.455-1.68-.315-.314-.735-.49-1.26-.49s-.945.176-1.26.49c-.315.315-.455.875-.455 1.68 0 .735.175 1.4.49 1.925.314.525.735 1.05 1.26 1.505.49.455 1.014.91 1.61 1.365.56.455 1.12.945 1.61 1.505.49.56.91 1.225 1.26 1.96.314.735.49 1.61.49 2.66 0 1.505-.316 2.695-.946 3.605-.63.91-1.54 1.505-2.764 1.75v1.575h-2.8v-1.575c-1.26-.245-2.17-.84-2.8-1.75-.595-.91-.91-2.135-.91-3.605v-1.505h3.255v1.715c0 .805.175 1.33.49 1.645.315.315.735.455 1.294.455.526 0 .98-.14 1.295-.455.315-.315.49-.875.49-1.645 0-.735-.175-1.4-.49-1.925a6.267 6.267 0 0 0-1.26-1.505c-.49-.455-1.05-.91-1.61-1.365-.56-.455-1.12-.945-1.61-1.505a8.56 8.56 0 0 1-1.26-1.96c-.35-.735-.489-1.61-.489-2.66z"/>
    </g>
</svg>
